<?xml version="1.0" standalone="no"?>
<!DOCTYPE svg PUBLIC "-//W3C//DTD SVG 20010904//EN"
 "http://www.w3.org/TR/2001/REC-SVG-20010904/DTD/svg10.dtd">
<svg version="1.0" xmlns="http://www.w3.org/2000/svg"
 viewBox="0 0 1278.551378 1002.500000"
 preserveAspectRatio="xMidYMid meet">
<metadata>
Created by potrace 1.16, written by Peter Selinger 2001-2019
</metadata>
<g transform="translate(-0.474248,1003.500000) scale(0.100000,-0.100000)"
fill="#ffffff" stroke="none">
<path d="M7511 5048 l-1 -4988 200 0 c248 0 2666 -26 3683 -40 412 -5 858 -10
992 -10 l243 0 7 208 c5 141 4 220 -3 248 -15 55 1 109 44 152 26 26 40 33 60
29 35 -6 44 22 51 160 8 144 5 152 -44 118 -21 -14 -43 -25 -50 -25 -23 0
-113 72 -117 93 -3 12 -9 69 -15 127 -8 80 -22 138 -58 243 -26 75 -49 137
-52 137 -4 0 -17 -28 -30 -62 -13 -35 -38 -95 -56 -134 -30 -66 -32 -77 -33
-195 l-2 -124 -30 -27 c-36 -33 -51 -35 -74 -9 -22 24 -13 41 20 41 l24 0 0
205 c0 136 -4 205 -10 205 -17 0 -73 -30 -96 -51 -21 -19 -21 -19 -37 21 -13
33 -20 40 -44 40 -43 0 -51 11 -58 70 -4 30 -14 74 -22 97 -8 23 -13 47 -11
55 3 8 33 17 74 23 l69 10 3 158 c1 86 -1 157 -5 157 -5 0 -28 -12 -52 -25
-48 -28 -67 -26 -99 8 -18 19 -21 37 -24 152 -3 122 -6 138 -47 260 -24 72
-53 140 -64 153 -23 25 -73 30 -100 10 -36 -28 -110 -353 -110 -478 1 -47 -4
-91 -9 -98 -8 -9 -24 -11 -55 -6 l-43 6 -2 -68 c-6 -195 15 -309 63 -360 28
-29 30 -35 23 -83 -8 -58 -17 -66 -69 -57 l-35 7 0 171 0 171 -45 41 -44 41
21 33 c20 32 20 35 5 62 -33 55 -39 120 -23 222 8 51 17 115 20 141 4 31 15
60 31 79 33 39 32 78 -1 109 -25 23 -26 27 -22 114 3 66 13 114 36 180 17 50
32 101 34 114 2 18 12 27 35 33 26 7 33 15 39 43 12 64 -2 97 -70 164 -49 49
-66 73 -71 101 -4 26 -14 41 -30 48 -24 11 -24 13 -18 119 4 92 8 110 25 123
11 8 37 30 58 47 20 18 47 33 59 33 21 0 21 3 21 196 0 221 7 208 -84 150
l-53 -34 -86 53 c-47 29 -102 66 -121 81 -35 28 -36 31 -36 99 -1 155 -16 242
-59 328 -26 51 -41 94 -41 118 0 56 -36 94 -89 94 -55 0 -71 -20 -80 -93 -6
-49 -16 -73 -52 -124 l-44 -63 -5 -195 -5 -195 -59 -31 -59 -32 -59 20 c-67
23 -102 60 -124 134 -25 85 -19 129 36 244 27 58 57 106 65 108 13 3 15 31 15
177 l0 174 -86 -46 -85 -45 -72 43 c-67 41 -73 48 -91 99 -13 36 -20 84 -20
140 -1 72 3 91 23 126 13 23 34 47 46 54 22 12 23 20 30 177 4 90 5 167 2 170
-3 3 -32 -10 -65 -28 l-59 -32 -64 44 c-75 52 -82 75 -49 159 19 47 19 54 5
70 -11 13 -16 48 -19 151 -4 152 -9 171 -101 363 l-57 118 -21 -33 c-35 -58
-104 -211 -133 -294 -23 -65 -28 -100 -30 -188 -2 -70 -7 -114 -15 -124 -11
-12 -8 -23 14 -63 41 -72 37 -97 -24 -149 l-51 -44 -49 23 c-27 13 -50 22 -52
19 -8 -9 -40 -96 -48 -129 -5 -19 -6 -77 -2 -127 l6 -93 36 -17 c57 -29 76
-72 76 -178 0 -104 -24 -187 -60 -211 -22 -14 -28 -13 -93 20 l-70 35 -6 -23
c-3 -13 -11 -69 -17 -124 -14 -129 -3 -186 57 -301 44 -84 47 -95 47 -166 0
-41 -2 -78 -5 -81 -3 -3 -49 25 -102 63 l-95 68 -1 53 c0 51 -1 54 -35 68
l-35 14 0 220 c0 201 2 221 18 226 35 11 47 22 50 45 2 13 15 36 30 52 18 19
26 38 26 62 0 32 2 35 31 35 75 0 70 -14 67 231 l-3 219 -30 0 c-18 0 -39 -9
-54 -25 -14 -13 -46 -33 -71 -44 l-46 -21 -89 76 -89 77 0 54 c0 50 -2 55 -30
71 l-31 17 3 160 c3 153 4 163 32 220 16 33 32 76 35 95 6 33 8 35 44 32 l37
-4 0 114 c0 62 3 164 7 226 7 129 1 136 -63 80 -22 -20 -57 -37 -85 -44 l-48
-11 -98 58 c-94 56 -99 61 -135 129 -35 66 -38 77 -38 154 0 49 6 101 15 127
17 46 51 89 71 89 7 0 15 8 18 18 8 24 11 430 4 438 -3 3 -42 -13 -85 -35
l-80 -40 -99 54 c-79 42 -106 62 -134 101 l-35 48 0 136 c0 119 3 140 21 175
12 22 31 48 41 58 16 14 19 27 16 65 -3 26 2 85 11 131 18 93 21 177 6 186 -5
3 -26 -1 -46 -10 -20 -8 -39 -15 -41 -15 -5 0 3 56 12 90 3 9 -12 27 -34 43
-38 28 -38 30 -29 70 30 132 -63 291 -169 291 -18 0 -41 -7 -50 -16 -15 -16
-14 -19 15 -52 28 -32 30 -39 21 -65 -6 -16 -31 -54 -57 -84 -26 -29 -57 -67
-69 -83 l-22 -29 -1 225 c0 124 -3 262 -7 308 l-6 83 -22 -21 c-25 -24 -35
-25 -35 -6 0 40 -41 28 -71 -21 l-21 -34 -27 25 c-25 24 -31 25 -60 15 -17 -6
-35 -8 -39 -5 -11 11 13 40 39 46 37 9 59 63 59 147 0 113 -15 133 -107 133
-38 0 -43 3 -43 23 -1 12 -7 38 -14 57 -63 162 -121 326 -141 399 l-24 86 0
-4987z"/>
<path d="M5247 9912 c-16 -54 -53 -161 -83 -238 -30 -78 -54 -156 -54 -173 0
-31 0 -31 -54 -31 -81 0 -98 -18 -103 -111 -6 -100 11 -150 58 -165 26 -9 35
-18 37 -38 l3 -26 -36 17 -37 18 -25 -29 c-24 -28 -26 -29 -36 -11 -14 25 -54
65 -65 65 -5 0 -13 -9 -18 -21 l-9 -20 -28 21 -27 21 -1 -153 c-1 -84 -4 -222
-8 -306 l-6 -152 -50 65 c-110 145 -110 145 -70 193 32 38 31 50 -1 62 -39 15
-94 -4 -136 -47 -55 -57 -70 -101 -67 -201 l3 -84 -33 -28 c-34 -27 -34 -27
-24 -79 11 -56 6 -61 -37 -36 -51 29 -53 24 -46 -92 16 -235 19 -255 50 -300
41 -62 55 -134 49 -255 -5 -94 -8 -106 -33 -135 -15 -17 -29 -36 -31 -41 -2
-6 -49 -35 -105 -65 l-101 -54 -88 44 -87 44 4 -224 3 -225 43 -38 c36 -33 45
-49 59 -107 22 -90 9 -179 -37 -260 -29 -52 -42 -64 -131 -116 l-100 -59 -49
13 c-30 8 -62 26 -81 44 -58 58 -59 55 -59 -195 l0 -226 42 4 43 3 6 -40 c4
-22 20 -69 35 -105 28 -63 29 -69 27 -215 -3 -153 -6 -164 -45 -177 -5 -2 -12
-29 -15 -61 l-6 -59 -85 -73 -85 -74 -41 16 c-23 9 -56 29 -74 45 -20 17 -44
28 -62 28 l-30 0 0 -219 c0 -242 -3 -231 66 -231 32 0 34 -2 34 -35 0 -25 7
-43 24 -58 13 -12 27 -36 30 -54 6 -25 15 -34 43 -44 l36 -12 -6 -111 c-4 -61
-7 -160 -7 -219 l0 -108 -30 -10 c-25 -9 -30 -17 -35 -57 -4 -26 -7 -52 -8
-59 -3 -15 -179 -143 -189 -137 -5 3 -8 38 -8 77 0 67 3 79 51 174 43 85 52
113 57 171 4 61 -11 221 -24 255 -3 10 -23 4 -72 -20 -40 -20 -75 -31 -84 -28
-23 9 -56 80 -69 149 -21 113 13 225 76 252 33 13 33 15 40 90 4 42 5 97 2
123 -7 55 -45 151 -61 151 -6 0 -26 -9 -44 -20 -18 -11 -36 -20 -41 -20 -20 0
-111 93 -111 113 0 11 14 45 31 76 31 54 31 55 11 69 -17 11 -19 18 -10 55 23
101 -38 312 -145 507 l-41 75 -58 -120 c-90 -186 -101 -228 -102 -379 -1 -94
-4 -130 -13 -133 -18 -6 -16 -30 7 -94 10 -31 17 -65 14 -75 -3 -11 -34 -39
-68 -63 l-63 -43 -63 32 c-34 17 -63 30 -64 28 -1 -2 0 -77 2 -168 l4 -166 28
-16 c50 -29 65 -71 65 -183 -1 -81 -5 -109 -23 -150 -20 -44 -31 -55 -92 -88
l-70 -38 -85 46 -85 47 0 -176 c0 -169 1 -176 20 -176 11 0 20 -6 20 -13 0 -7
20 -55 45 -106 39 -79 45 -101 45 -154 0 -66 -25 -134 -62 -174 -12 -13 -46
-32 -76 -43 l-54 -21 -64 36 -64 36 0 189 0 189 -47 68 c-39 57 -47 77 -51
126 -5 71 -36 102 -91 93 -48 -8 -68 -30 -75 -86 -4 -27 -26 -89 -49 -137
l-42 -88 -4 -148 -3 -147 -42 -34 c-53 -43 -189 -126 -207 -126 -8 0 -39 16
-69 35 -30 19 -58 35 -62 35 -4 0 -8 -88 -8 -195 l0 -195 25 0 c14 0 36 -10
48 -23 12 -12 39 -35 60 -50 l37 -28 0 -108 c0 -105 -1 -108 -25 -119 -19 -9
-25 -19 -25 -43 0 -25 -14 -45 -70 -103 -69 -72 -70 -73 -70 -127 0 -60 11
-79 47 -79 17 0 23 -6 23 -21 0 -11 16 -69 36 -127 30 -86 37 -122 38 -188 1
-77 -1 -84 -26 -111 -36 -37 -35 -61 2 -108 21 -26 30 -49 30 -74 0 -20 7 -71
15 -114 22 -113 19 -165 -10 -222 l-24 -49 20 -35 21 -35 -35 -33 c-20 -18
-41 -41 -46 -52 -7 -11 -11 -87 -11 -180 l0 -160 -36 -7 c-45 -8 -60 6 -67 64
-5 37 -1 47 28 82 49 59 76 213 60 354 l-7 68 -43 -6 c-29 -5 -46 -3 -50 5 -4
6 -9 59 -10 118 -4 151 -76 440 -115 461 -30 16 -75 12 -94 -9 -9 -10 -37 -78
-62 -152 -43 -126 -46 -143 -52 -273 l-7 -140 -32 -19 -33 -19 -55 30 -55 30
2 -161 3 -162 70 -10 c80 -12 86 -19 61 -92 -9 -26 -16 -63 -16 -84 0 -43 -21
-69 -55 -69 -28 0 -55 -24 -55 -49 0 -31 -11 -30 -57 5 -24 19 -53 34 -64 34
-17 0 -19 -8 -19 -77 0 -43 3 -135 7 -205 5 -114 8 -128 24 -128 25 0 32 -16
17 -40 -17 -26 -41 -25 -73 3 -26 22 -27 27 -32 156 -3 113 -8 141 -27 180
-12 25 -38 83 -56 129 -19 45 -37 79 -41 75 -4 -5 -26 -61 -48 -127 -41 -118
-54 -178 -66 -314 l-7 -73 -52 -39 c-29 -22 -58 -40 -65 -40 -7 0 -29 11 -49
25 l-37 25 -8 -47 c-8 -44 6 -234 18 -253 2 -4 16 -5 30 -2 20 3 34 -4 65 -37
45 -47 58 -95 41 -149 -8 -27 -9 -95 -4 -242 l8 -205 165 -3 c91 -2 521 1 955
7 435 6 1510 18 2390 27 880 9 1601 18 1603 19 1 1 1 2239 0 4972 l-3 4971
-28 -96z"/>
</g>
</svg>
