<?xml version="1.0" standalone="no"?>
<!DOCTYPE svg PUBLIC "-//W3C//DTD SVG 20010904//EN"
 "http://www.w3.org/TR/2001/REC-SVG-20010904/DTD/svg10.dtd">
<svg version="1.0" xmlns="http://www.w3.org/2000/svg"
   viewBox="0 0 2210.928527 1527.545999"
 preserveAspectRatio="xMidYMid meet">
<metadata>
Created by potrace 1.16, written by Peter Selinger 2001-2019
</metadata>
<g transform="translate(-21.032742,1548.500000) scale(0.100000,-0.100000)"
fill="#ffffff" stroke="none">
<path d="M12321 10498 l-1 -4988 200 0 c248 0 2666 -26 3683 -40 412 -5 858
-10 992 -10 l243 0 7 208 c5 141 4 220 -3 248 -15 55 1 109 44 152 26 26 40
33 60 29 35 -6 44 22 51 160 8 144 5 152 -44 118 -21 -14 -43 -25 -50 -25 -23
0 -113 72 -117 93 -3 12 -9 69 -15 127 -8 80 -22 138 -58 243 -26 75 -49 137
-52 137 -4 0 -17 -28 -30 -62 -13 -35 -38 -95 -56 -134 -30 -66 -32 -77 -33
-195 l-2 -124 -30 -27 c-36 -33 -51 -35 -74 -9 -22 24 -13 41 20 41 l24 0 0
205 c0 136 -4 205 -10 205 -17 0 -73 -30 -96 -51 -21 -19 -21 -19 -37 21 -13
33 -20 40 -44 40 -43 0 -51 11 -58 70 -4 30 -14 74 -22 97 -8 23 -13 47 -11
55 3 8 33 17 74 23 l69 10 3 158 c1 86 -1 157 -5 157 -5 0 -26 -11 -48 -25
-50 -31 -57 -31 -93 0 l-30 25 -4 133 c-3 124 -6 140 -47 262 -24 72 -53 140
-64 153 -23 25 -73 30 -100 10 -36 -28 -110 -353 -110 -478 1 -47 -4 -91 -9
-98 -8 -9 -24 -11 -55 -6 l-43 6 -2 -68 c-6 -195 15 -309 63 -360 28 -29 30
-35 23 -83 -8 -58 -17 -66 -69 -57 l-35 7 0 171 0 171 -45 41 -44 41 21 33
c20 32 20 35 5 62 -33 55 -39 120 -23 222 8 51 17 115 20 141 4 31 15 60 31
79 33 39 32 78 -1 109 -25 23 -26 27 -22 114 3 66 13 114 36 180 17 50 32 101
34 114 2 18 12 27 35 33 26 7 33 15 39 43 12 64 -2 97 -70 164 -49 49 -66 73
-71 101 -4 26 -14 41 -30 48 -24 11 -24 13 -18 119 4 92 8 110 25 123 11 8 37
30 58 48 20 17 47 32 59 32 21 0 21 3 21 196 0 221 7 208 -84 150 l-53 -34
-86 53 c-47 29 -102 66 -121 81 -36 29 -36 30 -36 104 0 148 -16 235 -60 324
-24 50 -40 98 -40 119 0 54 -37 92 -89 92 -55 0 -71 -20 -80 -93 -6 -49 -16
-73 -52 -124 l-44 -63 -5 -195 -5 -195 -59 -31 -59 -32 -59 20 c-67 23 -102
60 -124 134 -25 85 -19 129 36 244 27 58 57 106 65 108 13 3 15 31 15 177 l0
174 -86 -46 -85 -45 -72 43 c-67 41 -73 48 -91 99 -13 37 -20 83 -20 140 -1
72 3 91 23 126 13 23 34 47 46 54 22 12 23 20 30 177 4 90 5 167 2 170 -3 3
-32 -10 -65 -28 l-59 -32 -64 44 c-75 52 -82 75 -49 159 18 46 19 55 7 69 -11
11 -16 54 -20 151 -5 153 -12 176 -102 364 l-57 118 -21 -33 c-35 -58 -104
-211 -133 -294 -23 -65 -28 -100 -30 -188 -2 -70 -7 -114 -15 -124 -11 -12 -8
-23 14 -63 41 -72 37 -97 -24 -149 l-51 -44 -49 23 c-27 13 -50 22 -52 19 -8
-9 -40 -96 -48 -129 -5 -19 -6 -77 -2 -127 l6 -93 36 -17 c57 -29 76 -72 76
-178 0 -104 -24 -187 -60 -211 -22 -14 -28 -13 -93 20 l-70 35 -6 -23 c-3 -13
-11 -69 -17 -124 -14 -129 -3 -186 57 -301 44 -84 47 -95 47 -166 0 -41 -2
-78 -5 -81 -3 -3 -49 25 -102 63 l-95 68 -1 53 c0 51 -1 54 -35 68 l-35 14 0
220 c0 201 2 221 18 226 35 11 47 22 50 45 2 13 15 36 30 52 17 18 26 38 26
61 0 33 1 34 48 38 27 3 49 7 51 9 1 2 1 102 -1 222 l-3 217 -30 0 c-18 0 -39
-9 -54 -25 -14 -13 -46 -33 -71 -44 l-46 -21 -89 76 -89 77 0 54 c0 50 -2 55
-30 71 l-31 17 3 160 c3 153 4 163 32 220 16 33 32 76 35 95 6 33 8 35 44 32
l37 -4 0 114 c0 62 3 164 7 226 7 129 1 136 -63 80 -22 -20 -57 -37 -85 -44
l-48 -11 -98 58 c-94 56 -99 61 -135 129 -35 66 -38 77 -38 154 0 49 6 101 15
127 17 46 51 89 71 89 7 0 15 8 18 18 8 24 11 430 4 437 -3 4 -42 -12 -85 -34
l-80 -40 -99 54 c-79 42 -106 62 -134 101 l-35 48 0 136 c0 119 3 140 21 175
12 22 31 48 41 58 16 14 19 27 16 65 -3 26 2 85 11 131 18 93 21 177 6 186 -5
3 -26 -1 -46 -10 -20 -8 -39 -15 -41 -15 -5 0 3 56 12 90 3 9 -12 27 -34 43
-38 28 -38 30 -29 70 30 132 -63 291 -169 291 -18 0 -41 -7 -50 -16 -15 -16
-14 -19 15 -52 28 -32 30 -39 21 -65 -6 -16 -31 -54 -57 -84 -26 -29 -57 -67
-69 -83 l-22 -29 -1 225 c0 124 -3 262 -7 308 l-6 83 -22 -21 c-25 -24 -35
-25 -35 -6 0 40 -41 28 -71 -21 l-21 -34 -27 25 c-25 24 -31 25 -60 15 -17 -6
-35 -8 -39 -5 -11 11 13 40 39 46 37 9 59 63 59 147 0 113 -15 133 -107 133
-38 0 -43 3 -43 23 -1 12 -7 38 -14 57 -63 162 -121 326 -141 399 l-24 86 0
-4987z"/>
<path d="M10052 15346 c-18 -61 -55 -167 -83 -237 -27 -69 -49 -139 -49 -157
l0 -32 -54 0 c-81 0 -98 -18 -103 -111 -6 -100 11 -150 58 -165 26 -9 35 -18
37 -38 l3 -26 -36 17 -37 18 -25 -29 c-24 -28 -26 -29 -36 -11 -14 25 -54 65
-65 65 -5 0 -13 -9 -18 -21 l-9 -20 -28 21 -27 21 -1 -153 c-1 -84 -4 -222 -8
-306 l-6 -152 -50 65 c-110 145 -110 145 -70 193 32 38 31 50 -1 62 -41 16
-97 -4 -139 -51 -55 -61 -67 -98 -64 -197 l3 -84 -33 -28 c-34 -27 -34 -27
-24 -79 11 -56 6 -61 -37 -36 -51 29 -53 24 -46 -92 16 -235 19 -255 50 -300
41 -62 55 -134 49 -255 -5 -94 -8 -106 -33 -135 -15 -17 -29 -36 -31 -41 -2
-6 -49 -35 -105 -65 l-101 -54 -88 44 -87 44 4 -224 3 -225 43 -38 c36 -33 45
-49 59 -107 22 -90 9 -179 -37 -260 -29 -52 -42 -64 -131 -116 l-100 -59 -49
13 c-30 8 -62 26 -81 44 -58 58 -59 55 -59 -195 l0 -226 42 4 43 3 6 -40 c4
-22 20 -69 35 -105 28 -63 29 -70 27 -215 -2 -153 -5 -164 -45 -177 -5 -2 -12
-29 -15 -61 l-6 -59 -85 -73 -85 -74 -41 16 c-23 9 -56 29 -74 45 -20 17 -44
28 -62 28 l-30 0 0 -219 c0 -242 -3 -231 66 -231 32 0 34 -2 34 -35 0 -25 7
-43 24 -58 13 -12 27 -36 30 -54 6 -25 15 -34 43 -44 l36 -12 -6 -111 c-4 -61
-7 -160 -7 -219 l0 -108 -30 -10 c-25 -9 -30 -17 -35 -57 -4 -26 -7 -52 -8
-59 -3 -15 -179 -143 -189 -137 -5 3 -8 38 -8 77 0 67 3 79 51 174 43 85 52
113 57 171 4 61 -11 221 -24 255 -3 10 -23 4 -72 -20 -40 -20 -75 -31 -84 -28
-23 9 -56 80 -69 149 -21 113 13 225 76 252 33 13 33 15 40 90 4 42 5 97 2
123 -7 55 -45 151 -61 151 -6 0 -26 -9 -44 -20 -18 -11 -36 -20 -41 -20 -20 0
-111 93 -111 113 0 11 14 45 31 76 31 54 31 55 11 69 -17 11 -19 18 -10 55 23
101 -38 312 -145 507 l-41 75 -58 -120 c-90 -186 -101 -228 -102 -379 -1 -94
-4 -130 -13 -133 -18 -6 -16 -30 7 -94 10 -31 17 -65 14 -75 -3 -11 -34 -39
-68 -63 l-63 -43 -63 32 c-34 17 -63 30 -64 28 -1 -2 0 -77 2 -168 l4 -166 28
-16 c50 -29 65 -71 65 -183 -1 -142 -22 -186 -113 -239 l-67 -38 -87 47 -88
46 0 -175 c0 -169 1 -176 20 -176 11 0 20 -6 20 -13 0 -7 21 -56 46 -108 54
-110 60 -175 24 -256 -29 -65 -54 -89 -118 -113 l-54 -21 -64 36 -64 36 0 189
0 189 -47 68 c-39 57 -47 77 -51 126 -5 71 -36 102 -91 93 -48 -8 -68 -30 -75
-86 -4 -27 -26 -89 -49 -137 l-42 -88 -4 -148 -3 -147 -42 -34 c-53 -43 -189
-126 -207 -126 -8 0 -39 16 -69 35 -30 19 -58 35 -62 35 -4 0 -8 -88 -8 -195
l0 -195 25 0 c14 0 36 -10 48 -23 12 -12 39 -35 60 -50 l37 -28 0 -108 c0
-105 -1 -108 -25 -119 -19 -9 -25 -19 -25 -43 0 -25 -14 -45 -70 -103 -69 -72
-70 -73 -70 -127 0 -60 11 -79 47 -79 17 0 23 -6 23 -21 0 -11 16 -69 36 -127
30 -86 37 -122 38 -188 1 -77 -1 -84 -26 -111 -36 -37 -35 -61 2 -108 21 -26
30 -49 30 -74 0 -20 7 -71 15 -114 22 -113 19 -165 -10 -222 l-24 -49 20 -34
20 -34 -46 -49 -45 -48 0 -165 0 -165 -36 -7 c-45 -8 -60 6 -67 64 -5 37 -1
47 28 82 50 60 76 211 60 354 l-7 68 -43 -6 c-29 -5 -46 -3 -50 5 -4 6 -9 59
-10 118 -4 151 -76 440 -115 461 -30 16 -75 12 -94 -9 -9 -10 -37 -78 -62
-152 -43 -126 -46 -143 -52 -273 l-7 -140 -32 -19 -33 -19 -55 30 -55 30 2
-161 3 -162 70 -10 c80 -12 86 -19 61 -92 -9 -26 -16 -63 -16 -84 0 -43 -21
-69 -55 -69 -28 0 -55 -24 -55 -49 0 -31 -11 -30 -57 5 -24 19 -53 34 -64 34
-17 0 -19 -8 -19 -77 0 -43 3 -135 7 -205 5 -114 8 -128 24 -128 25 0 32 -16
17 -40 -17 -26 -41 -25 -73 3 -26 22 -27 27 -32 156 -3 113 -8 141 -27 180
-12 25 -38 83 -56 129 -19 45 -37 79 -41 75 -4 -5 -26 -61 -48 -127 -41 -118
-54 -178 -66 -314 l-7 -73 -52 -39 c-29 -22 -58 -40 -65 -40 -7 0 -29 11 -49
25 l-37 25 -8 -47 c-8 -45 6 -234 18 -254 3 -4 12 -6 20 -2 25 9 69 -15 95
-54 20 -29 24 -47 22 -87 -6 -115 1 -482 9 -490 6 -6 372 -6 986 2 538 6 1685
19 2548 28 864 9 1571 18 1573 19 1 1 1 2238 0 4972 l-3 4969 -33 -110z"/>
<path d="M5730 3827 c-63 -28 -187 -76 -275 -107 l-160 -55 -3 -45 c-3 -45 -3
-45 54 -79 83 -49 121 -86 141 -139 17 -45 18 -119 18 -1452 l0 -1405 -25 -50
c-31 -63 -68 -82 -186 -96 -94 -12 -114 -24 -114 -65 0 -13 5 -33 10 -46 l11
-23 497 1 497 2 14 27 c9 19 11 37 4 58 -8 31 -10 32 -102 44 -170 23 -204 54
-221 205 -12 105 -12 2683 0 3013 8 216 7 241 -8 253 -22 17 -22 17 -152 -41z"/>
<path d="M701 3609 c-274 -11 -461 -26 -477 -40 -17 -14 -18 -93 -2 -106 7 -6
66 -15 132 -21 178 -17 235 -53 268 -172 16 -59 24 -2434 9 -2580 -23 -213
-66 -255 -293 -293 l-73 -13 -3 -38 c-2 -22 -1 -49 2 -60 l5 -21 728 1 c636 1
742 3 837 18 445 70 730 244 872 531 132 268 124 621 -21 867 -115 196 -317
339 -553 393 -50 12 -77 23 -87 38 -21 30 -19 36 12 48 65 25 220 126 283 185
132 125 196 261 207 442 26 436 -221 712 -717 797 -203 35 -626 44 -1129 24z
m919 -178 c130 -38 217 -87 300 -171 133 -132 184 -267 184 -485 -1 -206 -46
-339 -152 -444 -134 -135 -371 -201 -717 -201 -117 0 -126 1 -152 24 l-28 24
0 601 0 601 25 24 c46 45 107 56 295 52 138 -3 184 -8 245 -25z m35 -1480
c463 -99 701 -402 682 -866 -9 -205 -53 -327 -160 -442 -94 -101 -181 -150
-342 -195 -101 -28 -364 -36 -459 -14 -180 42 -261 135 -303 346 -19 94 -31
1078 -14 1122 24 64 89 79 326 73 127 -3 207 -10 270 -24z"/>
<path d="M9780 3609 c-129 -4 -323 -13 -430 -19 -212 -12 -230 -18 -230 -70 0
-49 27 -66 118 -79 149 -19 203 -59 239 -176 17 -57 18 -125 18 -1330 0 -1184
-1 -1274 -18 -1335 -36 -132 -83 -164 -291 -195 -54 -9 -102 -18 -107 -21 -11
-7 -11 -95 -1 -112 7 -10 46 -11 198 -2 270 14 493 12 737 -7 264 -20 751 -23
892 -5 378 50 665 147 904 306 474 316 741 825 741 1416 0 640 -314 1161 -854
1420 -257 123 -532 186 -916 210 -184 11 -643 11 -1000 -1z m987 -164 c525
-69 905 -319 1113 -734 58 -116 116 -295 141 -437 26 -142 31 -450 10 -604
-54 -394 -171 -673 -374 -888 -172 -181 -379 -291 -667 -353 -93 -21 -133 -23
-350 -24 -204 0 -258 3 -325 18 -202 47 -318 150 -367 325 -35 129 -39 288
-35 1427 2 835 6 1111 16 1145 22 81 54 99 223 125 120 19 471 18 615 0z"/>
<path d="M6867 3396 c-99 -36 -158 -117 -165 -232 -7 -118 39 -202 137 -251
55 -27 192 -25 247 4 94 50 142 146 131 262 -8 97 -69 182 -153 217 -42 18
-147 17 -197 0z"/>
<path d="M13405 2304 c-99 -51 -214 -106 -255 -123 -74 -29 -75 -30 -78 -69
-3 -38 -1 -40 70 -93 124 -92 113 -18 113 -799 l0 -675 -22 -48 c-27 -57 -69
-80 -183 -98 -96 -15 -120 -44 -90 -111 l11 -23 522 1 522 1 14 28 c9 19 11
37 4 59 l-9 31 -131 11 c-202 17 -235 44 -253 205 -13 109 -13 976 0 1094 14
128 34 189 81 240 87 94 183 99 341 17 79 -41 109 -52 146 -52 84 1 167 55
200 130 20 47 20 147 -1 187 -41 78 -133 120 -242 110 -117 -11 -241 -76 -425
-221 -64 -51 -97 -71 -102 -63 -4 7 -8 87 -8 178 0 143 -2 168 -16 173 -22 8
-10 13 -209 -90z"/>
<path d="M19236 2374 c-47 -32 -295 -153 -396 -193 -74 -29 -75 -30 -78 -68
-3 -38 -1 -41 70 -94 124 -92 113 -18 113 -799 l0 -675 -25 -50 c-31 -63 -68
-82 -186 -97 -49 -6 -95 -15 -101 -21 -15 -11 -17 -75 -4 -96 7 -11 95 -13
489 -13 265 0 486 3 492 7 11 7 14 84 2 101 -4 6 -29 14 -57 18 -136 19 -190
52 -216 134 -17 52 -25 1103 -9 1204 15 98 38 145 100 206 209 205 619 197
759 -15 40 -60 68 -137 82 -222 6 -44 9 -263 7 -612 -3 -537 -3 -545 -25 -592
-26 -56 -67 -79 -178 -98 -38 -6 -76 -16 -82 -21 -15 -12 -17 -76 -4 -96 12
-20 959 -20 972 -1 13 21 11 85 -3 97 -7 5 -38 13 -68 17 -138 17 -196 50
-221 130 -16 51 -25 1106 -11 1212 12 85 31 128 83 187 140 158 444 213 646
115 111 -54 180 -150 216 -303 18 -76 17 -1132 -1 -1201 -23 -88 -78 -123
-216 -140 -73 -9 -94 -45 -66 -107 l11 -23 486 1 c398 2 487 4 494 15 13 21
11 85 -3 96 -7 6 -53 16 -103 22 -135 18 -169 40 -197 122 -8 24 -14 236 -18
684 -7 723 -5 700 -78 840 -119 227 -384 329 -690 266 -161 -34 -305 -96 -480
-210 -52 -33 -108 -63 -125 -67 -28 -6 -34 -3 -57 27 -13 19 -54 65 -90 102
-222 234 -618 220 -1018 -36 -40 -26 -79 -47 -87 -47 -8 0 -22 11 -31 25 -14
22 -15 43 -9 149 7 118 6 125 -13 135 -28 15 -32 14 -76 -15z"/>
<path d="M7051 2345 c-63 -37 -185 -94 -393 -183 -46 -20 -48 -23 -48 -61 0
-35 4 -42 38 -62 20 -13 58 -43 84 -67 38 -35 49 -54 58 -95 8 -37 11 -243 8
-692 l-3 -640 -25 -50 c-31 -62 -66 -81 -181 -96 -53 -7 -89 -18 -96 -27 -16
-19 -17 -53 -3 -84 l11 -23 486 2 c395 1 487 4 494 15 13 20 11 84 -3 95 -7 5
-51 15 -98 22 -155 23 -183 53 -202 214 -8 76 -5 1102 5 1682 l2 90 -30 2
c-20 1 -55 -13 -104 -42z"/>
<path d="M3999 2311 c-288 -63 -617 -271 -733 -464 -58 -97 -57 -189 1 -203
53 -14 213 28 290 75 44 27 61 66 72 158 10 94 26 129 83 177 56 48 147 76
249 76 183 0 298 -89 344 -265 18 -70 21 -407 4 -468 -5 -20 -20 -44 -33 -52
-12 -8 -170 -68 -352 -134 -414 -149 -467 -171 -552 -231 -102 -71 -145 -142
-157 -255 -26 -242 146 -467 385 -505 182 -28 266 -6 531 140 69 39 137 70
150 70 18 0 42 -19 87 -69 70 -78 125 -114 208 -136 158 -41 338 9 473 132 64
58 76 89 48 127 -12 17 -16 16 -73 -13 -190 -100 -333 -7 -364 234 -6 48 -3
244 9 591 18 528 18 554 0 658 -30 170 -140 297 -299 347 -95 30 -260 34 -371
10z m283 -1162 c21 -11 21 -15 14 -230 -10 -303 -24 -343 -145 -408 -133 -71
-253 -89 -354 -55 -189 64 -259 330 -123 467 74 73 261 158 481 217 83 22 100
24 127 9z"/>
<path d="M15470 2318 c-96 -13 -249 -69 -342 -124 -109 -65 -255 -210 -326
-326 -132 -214 -190 -446 -179 -723 10 -274 106 -514 272 -680 364 -364 1037
-332 1355 64 85 106 107 163 74 195 -32 32 -61 19 -143 -63 -97 -97 -187 -145
-304 -163 -149 -23 -369 22 -503 103 -254 153 -413 472 -414 830 0 71 4 91 19
110 l19 24 646 5 c757 6 685 -8 693 131 19 294 -217 555 -552 614 -95 16 -213
18 -315 3z m212 -149 c169 -36 271 -148 272 -300 1 -77 -12 -99 -72 -117 -68
-22 -283 -33 -572 -30 l-285 3 -3 33 c-6 65 71 184 178 276 135 116 323 168
482 135z"/>
<path d="M17389 2311 c-288 -63 -617 -271 -733 -464 -58 -97 -57 -189 1 -203
53 -14 213 28 290 75 44 27 61 66 72 158 10 94 26 129 83 177 56 48 147 76
249 76 183 0 298 -89 344 -265 18 -70 21 -407 4 -468 -5 -20 -20 -44 -33 -52
-12 -8 -170 -68 -352 -134 -414 -149 -467 -171 -552 -231 -102 -71 -145 -142
-157 -255 -26 -242 146 -467 385 -505 182 -28 266 -6 531 140 69 39 137 70
150 70 18 0 42 -19 87 -69 70 -78 125 -114 208 -136 158 -41 338 9 473 132 64
58 76 89 48 127 -12 17 -16 16 -73 -13 -190 -100 -333 -7 -364 234 -6 48 -3
244 9 591 18 528 18 554 0 658 -30 170 -140 297 -299 347 -95 30 -260 34 -371
10z m283 -1162 c21 -11 21 -15 14 -230 -10 -303 -24 -343 -145 -408 -133 -71
-253 -89 -354 -55 -189 64 -259 330 -123 467 74 73 261 158 481 217 83 22 100
24 127 9z"/>
</g>
</svg>
