<?xml version="1.0" standalone="no"?>
<!DOCTYPE svg PUBLIC "-//W3C//DTD SVG 20010904//EN"
 "http://www.w3.org/TR/2001/REC-SVG-20010904/DTD/svg10.dtd">
<svg version="1.0" xmlns="http://www.w3.org/2000/svg"
 viewBox="0 0 2210.928527 366.791752"
 preserveAspectRatio="xMidYMid meet">
<metadata>
Created by potrace 1.16, written by Peter Selinger 2001-2019
</metadata>
<g transform="translate(-10.032742,371.745753) scale(0.100000,-0.100000)"
fill="#ffffff" stroke="none">
<path d="M5620 3667 c-63 -28 -187 -76 -275 -107 l-160 -55 -3 -45 c-3 -45 -3
-45 54 -79 83 -49 121 -86 141 -139 17 -45 18 -119 18 -1452 l0 -1405 -25 -50
c-31 -63 -68 -82 -186 -96 -94 -12 -114 -24 -114 -65 0 -13 5 -33 10 -46 l11
-23 497 1 497 2 14 27 c9 19 11 37 4 58 -8 31 -10 32 -102 44 -170 23 -204 54
-221 205 -12 105 -12 2683 0 3013 8 216 7 241 -8 253 -22 17 -22 17 -152 -41z"/>
<path d="M591 3449 c-274 -11 -461 -26 -477 -40 -17 -14 -18 -93 -2 -106 7 -6
66 -15 132 -21 178 -17 235 -53 268 -172 16 -59 24 -2434 9 -2580 -23 -213
-66 -255 -293 -293 l-73 -13 -3 -38 c-2 -22 -1 -49 2 -60 l5 -21 728 1 c636 1
742 3 837 18 445 70 730 244 872 531 132 268 124 621 -21 867 -115 196 -317
339 -553 393 -50 12 -77 23 -87 38 -21 30 -19 36 12 48 65 25 220 126 283 185
132 125 196 261 207 442 26 436 -221 712 -717 797 -203 35 -626 44 -1129 24z
m919 -178 c130 -38 217 -87 300 -171 133 -132 184 -267 184 -485 -1 -206 -46
-339 -152 -444 -134 -135 -371 -201 -717 -201 -117 0 -126 1 -152 24 l-28 24
0 601 0 601 25 24 c46 45 107 56 295 52 138 -3 184 -8 245 -25z m35 -1480
c463 -99 701 -402 682 -866 -9 -205 -53 -327 -160 -442 -94 -101 -181 -150
-342 -195 -101 -28 -364 -36 -459 -14 -180 42 -261 135 -303 346 -19 94 -31
1078 -14 1122 24 64 89 79 326 73 127 -3 207 -10 270 -24z"/>
<path d="M9670 3449 c-129 -4 -323 -13 -430 -19 -212 -12 -230 -18 -230 -70 0
-49 27 -66 118 -79 149 -19 203 -59 239 -176 17 -57 18 -125 18 -1330 0 -1184
-1 -1274 -18 -1335 -36 -132 -83 -164 -291 -195 -54 -9 -102 -18 -107 -21 -11
-7 -11 -95 -1 -112 7 -10 46 -11 198 -2 270 14 493 12 737 -7 264 -20 751 -23
892 -5 378 50 665 147 904 306 474 316 741 825 741 1416 0 640 -314 1161 -854
1420 -257 123 -532 186 -916 210 -184 11 -643 11 -1000 -1z m987 -164 c525
-69 905 -319 1113 -734 58 -116 116 -295 141 -437 26 -142 31 -450 10 -604
-54 -394 -171 -673 -374 -888 -172 -181 -379 -291 -667 -353 -93 -21 -133 -23
-350 -24 -204 0 -258 3 -325 18 -202 47 -318 150 -367 325 -35 129 -39 288
-35 1427 2 835 6 1111 16 1145 22 81 54 99 223 125 120 19 471 18 615 0z"/>
<path d="M6757 3236 c-99 -36 -158 -117 -165 -232 -7 -118 39 -202 137 -251
55 -27 192 -25 247 4 94 50 142 146 131 262 -8 97 -69 182 -153 217 -42 18
-147 17 -197 0z"/>
<path d="M13295 2144 c-99 -51 -214 -106 -255 -123 -74 -29 -75 -30 -78 -69
-3 -38 -1 -40 70 -93 124 -92 113 -18 113 -799 l0 -675 -22 -48 c-27 -57 -69
-80 -183 -98 -96 -15 -120 -44 -90 -111 l11 -23 522 1 522 1 14 28 c9 19 11
37 4 59 l-9 31 -131 11 c-202 17 -235 44 -253 205 -13 109 -13 976 0 1094 14
128 34 189 81 240 87 94 183 99 341 17 79 -41 109 -52 146 -52 84 1 167 55
200 130 20 47 20 147 -1 187 -41 78 -133 120 -242 110 -117 -11 -241 -76 -425
-221 -64 -51 -97 -71 -102 -63 -4 7 -8 87 -8 178 0 143 -2 168 -16 173 -22 8
-10 13 -209 -90z"/>
<path d="M19126 2214 c-47 -32 -295 -153 -396 -193 -74 -29 -75 -30 -78 -68
-3 -38 -1 -41 70 -94 124 -92 113 -18 113 -799 l0 -675 -25 -50 c-31 -63 -68
-82 -186 -97 -49 -6 -95 -15 -101 -21 -15 -11 -17 -75 -4 -96 7 -11 95 -13
489 -13 265 0 486 3 492 7 11 7 14 84 2 101 -4 6 -29 14 -57 18 -136 19 -190
52 -216 134 -17 52 -25 1103 -9 1204 15 98 38 145 100 206 209 205 619 197
759 -15 40 -60 68 -137 82 -222 6 -44 9 -263 7 -612 -3 -537 -3 -545 -25 -592
-26 -56 -67 -79 -178 -98 -38 -6 -76 -16 -82 -21 -15 -12 -17 -76 -4 -96 12
-20 959 -20 972 -1 13 21 11 85 -3 97 -7 5 -38 13 -68 17 -138 17 -196 50
-221 130 -16 51 -25 1106 -11 1212 12 85 31 128 83 187 140 158 444 213 646
115 111 -54 180 -150 216 -303 18 -76 17 -1132 -1 -1201 -23 -88 -78 -123
-216 -140 -73 -9 -94 -45 -66 -107 l11 -23 486 1 c398 2 487 4 494 15 13 21
11 85 -3 96 -7 6 -53 16 -103 22 -135 18 -169 40 -197 122 -8 24 -14 236 -18
684 -7 723 -5 700 -78 840 -119 227 -384 329 -690 266 -161 -34 -305 -96 -480
-210 -52 -33 -108 -63 -125 -67 -28 -6 -34 -3 -57 27 -13 19 -54 65 -90 102
-222 234 -618 220 -1018 -36 -40 -26 -79 -47 -87 -47 -8 0 -22 11 -31 25 -14
22 -15 43 -9 149 7 118 6 125 -13 135 -28 15 -32 14 -76 -15z"/>
<path d="M6941 2185 c-63 -37 -185 -94 -393 -183 -46 -20 -48 -23 -48 -61 0
-35 4 -42 38 -62 20 -13 58 -43 84 -67 38 -35 49 -54 58 -95 8 -37 11 -243 8
-692 l-3 -640 -25 -50 c-31 -62 -66 -81 -181 -96 -53 -7 -89 -18 -96 -27 -16
-19 -17 -53 -3 -84 l11 -23 486 2 c395 1 487 4 494 15 13 20 11 84 -3 95 -7 5
-51 15 -98 22 -155 23 -183 53 -202 214 -8 76 -5 1102 5 1682 l2 90 -30 2
c-20 1 -55 -13 -104 -42z"/>
<path d="M3889 2151 c-288 -63 -617 -271 -733 -464 -58 -97 -57 -189 1 -203
53 -14 213 28 290 75 44 27 61 66 72 158 10 94 26 129 83 177 56 48 147 76
249 76 183 0 298 -89 344 -265 18 -70 21 -407 4 -468 -5 -20 -20 -44 -33 -52
-12 -8 -170 -68 -352 -134 -414 -149 -467 -171 -552 -231 -102 -71 -145 -142
-157 -255 -26 -242 146 -467 385 -505 182 -28 266 -6 531 140 69 39 137 70
150 70 18 0 42 -19 87 -69 70 -78 125 -114 208 -136 158 -41 338 9 473 132 64
58 76 89 48 127 -12 17 -16 16 -73 -13 -190 -100 -333 -7 -364 234 -6 48 -3
244 9 591 18 528 18 554 0 658 -30 170 -140 297 -299 347 -95 30 -260 34 -371
10z m283 -1162 c21 -11 21 -15 14 -230 -10 -303 -24 -343 -145 -408 -133 -71
-253 -89 -354 -55 -189 64 -259 330 -123 467 74 73 261 158 481 217 83 22 100
24 127 9z"/>
<path d="M15360 2158 c-96 -13 -249 -69 -342 -124 -109 -65 -255 -210 -326
-326 -132 -214 -190 -446 -179 -723 10 -274 106 -514 272 -680 364 -364 1037
-332 1355 64 85 106 107 163 74 195 -32 32 -61 19 -143 -63 -97 -97 -187 -145
-304 -163 -149 -23 -369 22 -503 103 -254 153 -413 472 -414 830 0 71 4 91 19
110 l19 24 646 5 c757 6 685 -8 693 131 19 294 -217 555 -552 614 -95 16 -213
18 -315 3z m212 -149 c169 -36 271 -148 272 -300 1 -77 -12 -99 -72 -117 -68
-22 -283 -33 -572 -30 l-285 3 -3 33 c-6 65 71 184 178 276 135 116 323 168
482 135z"/>
<path d="M17279 2151 c-288 -63 -617 -271 -733 -464 -58 -97 -57 -189 1 -203
53 -14 213 28 290 75 44 27 61 66 72 158 10 94 26 129 83 177 56 48 147 76
249 76 183 0 298 -89 344 -265 18 -70 21 -407 4 -468 -5 -20 -20 -44 -33 -52
-12 -8 -170 -68 -352 -134 -414 -149 -467 -171 -552 -231 -102 -71 -145 -142
-157 -255 -26 -242 146 -467 385 -505 182 -28 266 -6 531 140 69 39 137 70
150 70 18 0 42 -19 87 -69 70 -78 125 -114 208 -136 158 -41 338 9 473 132 64
58 76 89 48 127 -12 17 -16 16 -73 -13 -190 -100 -333 -7 -364 234 -6 48 -3
244 9 591 18 528 18 554 0 658 -30 170 -140 297 -299 347 -95 30 -260 34 -371
10z m283 -1162 c21 -11 21 -15 14 -230 -10 -303 -24 -343 -145 -408 -133 -71
-253 -89 -354 -55 -189 64 -259 330 -123 467 74 73 261 158 481 217 83 22 100
24 127 9z"/>
</g>
</svg>
